<svg width="74" height="61" xmlns="http://www.w3.org/2000/svg"><path d="M73.392 13.207c0-.821-.532-1.536-1.317-1.778L37.626.906a3.149 3.149 0 0 0-1.844 0L1.333 11.429a1.847 1.847 0 0 0-1.317 1.774c-.003 1.144-.222 2.359 1.043 2.925.055.024 14.954 4.907 15.008 4.926-.152 5.352-.46 10.102-2.277 13.985a1.662 1.662 0 0 0 1.352 2.355c1.156.105 2.417.379 3.734.762v6.808a2.202 2.202 0 0 0-1.293 2.914c-1.48.946-2.098 2.653-1.813 5.102.207 1.789 1.286 5.46 4.012 7.879a.563.563 0 0 0 .934-.383c.164-2.441 2.547-5.578 2.77-7.496.304-2.637-.274-4.281-1.794-5.168.457-1.211-.203-2.445-1.312-2.848v-6.336c5.328 1.82 10.812 4.922 15.101 7.383.758.43 1.7.43 2.457 0 4.618-2.648 13.977-8.027 20.336-8.617a1.662 1.662 0 0 0 1.352-2.355c-1.707-3.653-2.164-7.911-2.34-13.965l15-4.918c.023-.008.047-.016.074-.028 1.24-.558 1.032-1.742 1.032-2.921zM15.278 35.902a.159.159 0 0 1-.129-.227c1.883-4.027 2.24-8.797 2.403-14.133l1.324.434v14.633c-1.258-.352-2.477-.606-3.598-.707zm5.758 12.82c.81.43 1.652 1.313 1.328 4.129-.129 1.109-1.32 3.004-2.125 5.047.04-1.402.492-2.391 1.016-3.918.031-.102-.11-.152-.153-.063-.793 1.606-1.718 3.094-1.62 4.985-1.712-2.117-2.45-4.77-2.598-6.047-.239-2.051.222-3.383 1.386-4.078a2.173 2.173 0 0 0 1.805.43c.008.007.008.015.016.023l.004.004c.351.344.851.824 1.004 1.289l.003.012c.032.1.184.074.18-.032-.012-.582-.28-1.097-.516-1.578a2.8 2.8 0 0 0 .27-.203zm-1.414-.598c-1.023 0-1.484-1.3-.664-1.941a.738.738 0 0 0 1.328 0c.82.637.363 1.94-.664 1.94zm.75-11.066V22.464c16.551 5.426 15.461 5.11 15.957 5.172v17.113c-.75-.308-8.68-5.308-15.957-7.691zm37.887-1.383a.162.162 0 0 1-.129.227c-7.91.73-20.012 8.422-21.05 8.85V27.64c.491-.066-.849.336 18.714-6.078.156 5.078.523 9.96 2.465 14.113zm13.504-20.93l-34.62 11.352a1.396 1.396 0 0 1-.877 0l-15.8-5.18c.101-.375.281-.718.531-1.007l15 4.89c.484.16 1.031.168 1.54 0l33.16-10.832c.476-.156.234-.871-.235-.711l-33.16 10.832a1.732 1.732 0 0 1-1.075 0l-14.539-4.742c.094-.055.18-.117.282-.156l15.023-6.301c.914-.383.34-1.766-.578-1.383l-15.023 6.3a4.11 4.11 0 0 0-1.407.985L2.821 13.195c-.469-.153-.707.558-.234.715l16.914 5.515a4.16 4.16 0 0 0-.465 1.028l-17.39-5.704a.269.269 0 0 1-.137-.246c.004-.207.007-1.086.007-1.293 0-.16.102-.296.254-.343L36.22 2.339c.312-.097.652-.097.964 0l34.45 10.524a.356.356 0 0 1 .254.344c0 .632.004 1.1.007 1.296a.255.255 0 0 1-.132.243z" fill="#717171" fill-rule="evenodd"/></svg>