<svg viewBox="0 0 512 512" xmlns="http://www.w3.org/2000/svg"><path d="m376.9 225.2c-4.6-30.7-23.3-60-49.9-76a70.1 70.1 0 0 0 -25.1-9 2.7 2.7 0 0 0 -.7-.6c-29.2-15.7-62.4-4.4-90.1 9.6s-52.6 36.4-62.6 66.3 4.4 65.5 23.6 89c22.5 27.6 51.1 44.7 87.3 44.4l2.7-.2c15.7 2.7 31.8 1.8 46.6-4.7a95.5 95.5 0 0 0 36.8-28.4l3.8-3.1c24.6-22.3 32.4-55.1 27.6-87.3zm-85.9-75.8a101.9 101.9 0 0 1 18.8 7 93.4 93.4 0 0 0 -20.6-5.6 3.3 3.3 0 0 0 1.7-1.4zm-105.3 121.6a70.4 70.4 0 0 1 -7-37.3 78.3 78.3 0 0 0 2.3 8.7 78.5 78.5 0 0 0 3.3 19 29.9 29.9 0 0 0 1.4 9.6zm155.3-20.4a54.5 54.5 0 0 1 -.7 6.4 34.2 34.2 0 0 1 -5.6 7.5c4.2-18.6-1.5-40-10.5-56.8a64 64 0 0 0 -14.5-18.2 95.3 95.3 0 0 1 18.5 16.5c2 2.3 3.9 4.6 5.8 7.1a88.4 88.4 0 0 1 7 37.5zm-142.5-4.9a41.1 41.1 0 0 0 -.3 6.3 74.5 74.5 0 0 1 -3.7-10.8 73.5 73.5 0 0 1 2.8-15.9 61.3 61.3 0 0 0 1.2 20.5zm114.4-35.7a49.8 49.8 0 0 0 -17.7-24.2c21 12.8 33.8 38.3 35.5 64.2a42.8 42.8 0 0 1 -2.8 18.7c4-19.6-5.4-44.5-15.1-58.6zm-88 73.2a117.2 117.2 0 0 1 -13.4-20.2 67.1 67.1 0 0 1 -6.9-19.3 47.7 47.7 0 0 1 5.1-13.6l1-1.7a53.5 53.5 0 0 0 .7 6.3c-1.3 10.8.4 21.7 6 30.8 12.3 20.3 40.5 34.6 62.3 23.1h5.3a67.3 67.3 0 0 1 -10.7 4.7c-16.5 2.4-35.3-1.5-49.4-10zm69.3-1.1-5 .6a50.1 50.1 0 0 0 11.7-11.2 30.1 30.1 0 0 0 4.1-4.2l-.2.5a40.9 40.9 0 0 1 -10.7 14.4zm-68-15a37.5 37.5 0 0 1 -2.2-3.3l2.8 3a61.3 61.3 0 0 0 25.8 17.3 45 45 0 0 1 -18.4-8.4 63.2 63.2 0 0 1 -8-8.5zm27.3 4c-11.5-3.5-18.6-10.1-22-18.3 9.1 12.2 28.9 18.4 42.2 16.1l.8-.2a36.5 36.5 0 0 0 5.6.2l-1.9 1.4a29.2 29.2 0 0 1 -10 3.9 85.1 85.1 0 0 1 -14.7-3zm44.6-24.4c-.1-.9 0-1.8-.2-2.7a32 32 0 0 0 -5.7-13.4 33 33 0 0 0 -2.4-5.6c-6.2-11.1-19.3-14.9-29.7-12a29 29 0 0 0 -11.5 3.2 22.6 22.6 0 0 1 4.8-8.8c10.5-5.7 21.9-3.8 31.5 3.6a54.7 54.7 0 0 1 18.6 28.9 27.6 27.6 0 0 1 -5.4 6.9zm-10.3-9.5a24 24 0 0 1 .3 8.3 15.6 15.6 0 0 1 -4 8.1 26 26 0 0 1 -10.7 0c6.8-1.2 12.1-5.8 12.1-14.7 0-10.5-9.4-17.5-18.8-17.9a25 25 0 0 1 11.3 3.1 31.4 31.4 0 0 1 9.8 13.2zm-21.1-10.1c6.2-.7 10.5 3.2 12.4 8.9a32 32 0 0 1 -3.8 7.4 18.3 18.3 0 0 0 -.2-2.3c5.6-10.7-16.5-15.1-15.3-2a3.1 3.1 0 0 0 2.2 2.9 7 7 0 0 0 4-.1l-.2.9q-9.3 6.1-11.1-7.7c.8-5.4 7.6-7.4 12-7.9zm-12.1 26.9a19.2 19.2 0 0 1 -5.9-9.9 32.1 32.1 0 0 0 7.6 7.5 43.3 43.3 0 0 0 20.4 7.4 33.2 33.2 0 0 1 -4.7 1.8l-2.5.5-5.1-.9a40.1 40.1 0 0 1 -9.9-6.3zm-12.3-37.6a29.5 29.5 0 0 0 -.6 5.5 22.9 22.9 0 0 0 -3.2 4.9 42.8 42.8 0 0 1 .3-6.3 46.5 46.5 0 0 1 3.4-4.1zm-9.4 16.2a44.4 44.4 0 0 0 3.3 11.9 26.2 26.2 0 0 0 1.4 4.9 23.3 23.3 0 0 1 -4.2-7.3 18.3 18.3 0 0 1 -.6-9.5zm58.3 34.4 3.6-.5a62.8 62.8 0 0 1 -4.5 5.6 31.6 31.6 0 0 1 -7.3 2 36.4 36.4 0 0 0 8.2-7.1zm-70-38.7c2.3-10.6 8.2-17.6 15.8-21.9a47.1 47.1 0 0 0 -8.8 12.3c-8.4 16.5-7.1 32.3 2.3 43.9-1.1-1.2-2.2-2.5-3.2-3.7a38.5 38.5 0 0 1 -6.1-30.6zm41 52.6 4.9-.6a58 58 0 0 0 14.2-.1l-1.7 1.1a40.8 40.8 0 0 1 -4.4 1.7 74.6 74.6 0 0 1 -13-2.1zm13.7-94.6a62.9 62.9 0 0 0 -5.9-2.4c11.9-2.3 22.1 3.3 28.9 12.3a62.4 62.4 0 0 0 -23-9.9zm31.1 89.3a53.4 53.4 0 0 0 8-31.7c1.2 11.3-1.3 22.6-8 31.7zm-58.7-94.5a34.5 34.5 0 0 0 -10.9 3.2c-15.1 7.5-23.3 19.3-25.9 32.6l-2.1 2.9a70.1 70.1 0 0 0 -5.5 9.2c1.7-21.4 16-39.4 37.6-47.3 2.6-.5 5.2-.9 7.9-1.2zm-46.4 89.4a80.5 80.5 0 0 0 25.2 23.2l2.3 2.1a64.2 64.2 0 0 1 -14.1-5.4c-5.1-7-10.3-14.4-14.9-22.1zm68.2 30.1 5.5-1.8a69.7 69.7 0 0 0 23.9-7.8 54.9 54.9 0 0 0 7.7-5.3l5.1-1.5c-9.3 9.3-25.7 14.5-40.2 16.4zm45.9-24.3a39.9 39.9 0 0 0 6.4-15.8 41.4 41.4 0 0 1 -3.7 14.7zm-25.8-106.3a52.5 52.5 0 0 0 -5.3-.6 54.6 54.6 0 0 0 -18.9 3 73 73 0 0 0 -31.6 5c-7.7 2-15 5-20.8 10.3-10.3 9.4-16.8 21.1-21.4 33.9a61.8 61.8 0 0 1 2.4-14.8c6.7-22.9 33.3-33.9 54.1-39.3l3.6-.7 3.7-.2a2.8 2.8 0 0 0 2.1-1 72.7 72.7 0 0 1 8.6-.6 116.5 116.5 0 0 1 23.5 5zm40.8 104.9a55.4 55.4 0 0 0 5-4.2 45.7 45.7 0 0 1 -13.4 16.2 44.7 44.7 0 0 0 8.4-12zm-112.5 29.7 1.7 2.3a3.2 3.2 0 0 0 4.3.8 102.6 102.6 0 0 0 12.3 5c23.8 7.8 48.1 7.7 69.7-1.1-25.9 14.5-58.1 13.1-84.6.3a115.6 115.6 0 0 1 -24.8-23.2 93.8 93.8 0 0 0 21.4 15.9zm78.7 4.8c-10.8 3.6-22.6 4.1-34.2 2.7a94.3 94.3 0 0 0 27.9-6.1c21.9-3 41.9-14.2 51.3-34.8a85.9 85.9 0 0 1 -10.3 17.9 101.5 101.5 0 0 1 -34.7 20.4zm-10.7-148.8a99.4 99.4 0 0 0 -33.7-3.4c33.5-6.8 69.2 4.4 89.7 33.7 9.1 13.1 13.7 28.4 14.7 44.2a101.5 101.5 0 0 0 -6.2-21.2c-11.4-27.5-36.6-45.4-64.5-53.3zm-4.4-21.4a145.7 145.7 0 0 0 -15.6 1.5 117.2 117.2 0 0 0 -32.1 4.7l-2.5.5c16.2-6.5 33.9-10 50.2-6.8zm-119.7 67.6a87.7 87.7 0 0 1 22.2-30.9c-1.5 1.6-2.9 3.3-4.2 5-27.1 34.6-23.8 77.9-2.5 111.2-19.5-23.8-29-54-15.5-85.3zm-3.8 66.9c10.7 21.6 29.1 38.8 49.3 52.6a156.7 156.7 0 0 0 20.1 11.5c-30.2-10.2-56.8-34.6-69.3-64.1zm77.2 58.2c-39-12.7-67.1-50.2-69-90.8-1.8-36.7 20.9-67.9 52.1-83.8a2.6 2.6 0 0 0 2.4.4c9.5-2.8 19.1-5.6 28.9-7.8a160 160 0 0 1 23.9-.2 116.5 116.5 0 0 0 -19 1.3 102.7 102.7 0 0 0 -43.5 17.6c-28.8 14.7-48.9 42.7-43 79.4 4.5 28.1 21.7 51.4 44.4 65.6 26.8 20.2 62.8 26.5 92.8 15.5-21.4 9.5-46.8 10.3-69.9 2.8zm54.4-4a78.3 78.3 0 0 1 -28.9.5 89.9 89.9 0 0 0 40.2-7.9 91.5 91.5 0 0 0 36.9-30.3 78.4 78.4 0 0 0 9.9-12.3c-8.8 25-30.5 44.2-58 50zm53.6-20.2a118 118 0 0 1 -16.1 12.7 102.5 102.5 0 0 0 34-61 101.2 101.2 0 0 0 -8.8-61c18.1 34.4 12.3 77.6-9 109.3zm19.1-24.9c11-33 7.1-71.4-13-100.8a93.1 93.1 0 0 0 -43.6-34.2l4.3 1c31 8.4 50.4 39.8 58.5 68.8 6.9 24.7 3.8 46.7-6 65.2z" fill="#ffde17"/><g fill="#231f20"><path d="m367.4 193.8a3.3 3.3 0 0 0 1.1-4.8c-5-6.3-10.1-12.5-15.6-18.3-3.1-4.3-6.3-8.5-9.5-12.7a2.4 2.4 0 0 0 -3.9-.1c-13.4-11.8-28.5-21.3-46.2-26.9-30.6-9.6-63.7-2.4-91.1 12.7-57.3 31.6-76.3 103-39.3 157.5 35.3 52.1 107.5 69.7 163 41.6 27.9-14.1 46.9-40.3 55-70.1 7.5-27.5-.4-54.7-13.5-78.9zm-37.6 139.8c-51.3 33.3-119.7 15.1-157.4-29.7-19.8-23.5-27.2-55.5-21.3-85.4s28.3-54.5 54.1-69.8 60.2-20.4 90.4-10.9c20.6 6.5 37.7 20.2 52.3 36 16.7 23.5 29.9 49.2 29.8 78.9-.1 33.1-20.9 63.4-47.9 80.9z"/><path d="m223.9 248c-6.9 5.7-13.8 9.2-22.9 9.1-3.4-.1-6.2-.6-8.9-2.5-.5-.3-6.9-5.7-6-6.4 3.1-2.2.1-7.3-3-5.1-8.3 5.9 2.8 14.6 8.1 18s12.6 2.4 17.2 1.4c7.6-1.6 13.7-5.4 19.6-10.3 3-2.4-1.2-6.6-4.1-4.2zm116-13.4a22.2 22.2 0 0 1 -13.8 13.3c-3.9 1.3-18 3.1-18.8-3.6-.4-3.7-6.3-3.8-5.9 0 1.2 10.8 12.9 11.2 21.7 10.3 10.9-1.2 18.5-8.6 22.5-18.3 1.4-3.7-4.3-5.2-5.7-1.7zm-3 35.4c-10.4 26.9-37.2 41.2-64.8 44.1-22 2.3-58.2-6.6-66.9-29.3-1.4-3.5-7.1-2-5.7 1.6 10.1 26.3 47.3 35.2 72.6 33.6 30.3-1.9 59.4-19.6 70.5-48.4 1.4-3.6-4.3-5.1-5.7-1.6zm-94-183c-5.7-4.8-9.1-15.1-12.2-21.7s-4.9-10.9-7-16.4c-.9-2.3-3-10.7-3.5-10.5 3.4-1.7.4-6.8-3-5.1-7.1 3.7 2.2 20.9 4 25.2 4.2 9.8 9 25.5 17.5 32.6 2.9 2.5 7.1-1.7 4.2-4.1zm70.4-54.9c-4.2 17.3-1.8 34.9-1.6 52.5 0 3.8 6 3.8 5.9 0-.2-17-2.7-34.2 1.4-50.9.9-3.7-4.8-5.3-5.7-1.6zm97.4 39.6c-11 8.5-19.1 20.5-30.7 28.4-6.7 4.6-14.9 9.9-18 17.7-1.4 3.6 4.4 5.1 5.7 1.6 3.1-8 12.8-10.9 18.4-16.4 4.1-4 8.4-7.7 12.7-11.5s9.3-10.4 14.8-14.7c3-2.3.1-7.4-2.9-5.1zm45.8 81.3c-7.4 5-14.9 9.9-22.6 14.5-5.2 3.1-14.2 10.8-20.3 10.2-3.8-.4-3.8 5.6 0 5.9 7.3.7 11.6-5 17.7-7.8 9.9-4.5 19.1-11.7 28.1-17.7 3.2-2.1.3-7.2-2.9-5.1zm23.6 101.6c-7-.3-13.8-2-20.8-2.8-9.1-1-17.7 1.7-26.5-2.7-3.4-1.7-6.4 3.4-3 5.1 6.9 3.4 13.7 3.7 21.3 3.5 9.8-.3 19.2 2.4 28.9 2.8 4 .1 3.9-5.8.1-5.9zm-13.3 76.8c-9.1 0-18-.4-26.8-3-7.1-2.1-14-5.2-21.2-7.2-3.7-1.1-5.2 4.7-1.6 5.7 8.3 2.4 16.3 5.8 24.6 8.3s16.7 2.2 24.9 2.2c4-.1 4-6 .1-6zm-48.1 91a144.1 144.1 0 0 1 -23.1-30.9c-5.2-9.4-8.8-19.3-16.8-26.8-2.8-2.6-7 1.6-4.2 4.2 8.2 7.7 11.9 18.5 17.3 28.1a139.8 139.8 0 0 0 22.6 29.5c2.7 2.8 6.9-1.4 4.2-4.1zm-113.4 13.2c-2.8-11.8-7.7-22.4-8.4-34.7-.2-3.8-6.1-3.8-5.9 0 .6 11.1 4.1 21.3 7.4 31.8s5.1 24.7 7.5 36.9c.7 3.7 6.4 2.2 5.7-1.6-2.1-10.8-3.8-21.7-6.3-32.4zm-83.3-45.1c-8.5 19.7-10.5 42.2-16.6 62.8-1.1 3.7 4.6 5.2 5.7 1.6 5.9-20 7.6-42.2 16-61.4 1.5-3.5-3.6-6.5-5.1-3zm-65.5-26.2c-6.6 4.8-9.8 13.8-15.1 20-7.5 8.7-16.7 15.8-25.4 23.3-2.9 2.5 1.3 6.7 4.2 4.2 7.2-6.3 14.6-12.4 21.4-19.1a83.7 83.7 0 0 0 8.1-9.2c3.2-4.2 5.5-10.9 9.8-14.1s.1-7.3-3-5.1zm-53.9-148.1c-13.8 3.7-27.8 4.2-42 4.3-6.6 0-20.8 3.8-26.1-.6-2.9-2.4-7.1 1.7-4.2 4.2 6.4 5.4 16.2 3.1 23.9 2.4 17-1.5 33.3-.2 50-4.6 3.6-.9 2-6.6-1.6-5.7zm31.1-54.6c-12.2-2.7-23.8-6.7-35.5-11.2-8.3-3.2-15.5-9.6-24.1-11.8a2.7 2.7 0 0 0 -1.8-.7h-1.5c-3.2 0-4.2 5.3-.8 5.8 9.1 1.3 17.9 8.9 26.6 12.4a230.3 230.3 0 0 0 35.5 11.3c3.7.7 5.3-5 1.6-5.8zm35.7-51.9c-5.4-7.8-11.8-14.8-18-21.9s-14.6-14.1-19-22.5c.9-1.8.1-4.4-2.5-4.4h-1.5c-1.7 0-3.6 1.9-2.9 3.7 3.1 7.5 8.3 12.7 13.9 18.4a236.9 236.9 0 0 1 24.8 29.6c2.3 3.2 7.4.3 5.2-2.9zm-74.2 171.6c-16 4.7-31 12.7-48 13.2-3.8.1-3.8 6 0 5.9 17.6-.5 32.9-8.6 49.5-13.4 3.7-1.1 2.1-6.8-1.5-5.7zm18.5 44.6c-14.3 7.7-31.2 12.4-39.5 27.7-1.8 3.3 3.3 6.3 5.1 3 7.7-14.1 24.1-18.4 37.4-25.5 3.3-1.9.3-7-3-5.2z"/></g></svg>