<svg data-name="Layer 1" xmlns="http://www.w3.org/2000/svg" viewBox="0 0 512 512"><path d="M309.9 42a181.8 181.8 0 1 1-139.1-1.2A181.2 181.2 0 0 1 309.9 42zm14.5-35.4a7.1 7.1 0 1 0-5.7 13.1 206.3 206.3 0 0 1-161.8 379.6 7.1 7.1 0 1 0-5.5 13.2 220.6 220.6 0 0 0 173-405.9zM158.5 499h160.7a5.7 5.7 0 0 0 5.7-5.7v-22.6a5.7 5.7 0 0 0-5.7-5.7h-48.3v-15a4 4 0 0 0-4-4h-56.1a4 4 0 0 0-4 4v15h-48.3a5.7 5.7 0 0 0-5.7 5.7v22.6a5.7 5.7 0 0 0 5.7 5.7zM364.4 95.6c-2.1-.8-4.1-1.1-5.6-2.6s-.9-3.1-3.5-6.7l-4.8-4.4c-1.4-.5-2.8-.2-5 0-3.9.3-3.3.8-3.9 2.8s-2 .8-3.3 1.4.7 1.6-1.1 3.5-2.8-1.3-3.8-.5 0 2 .4 4.4 1.5 2.9 1.6 4.4-.7 4.6-2.5 4.4-1.2-1.2-.2-3.5.2-3.1-.8-5.9-.9-4.7-1.6-7-1.8-2.9-3.4-.4-.7 4-.3 6 .5 3.7-1.4 2.8-2.9-4.6-5.3-3.7-2.2 2.1-4.7 1.1a9.8 9.8 0 0 1-4.6-3.5c-1-1.4-2.1-.7-4.1-.4a19.3 19.3 0 0 0-5.2 1.9c-1.2.6-2.9-.8-4.1-.5s-1.2 1.3-3 1-2.8-.9-3.8.3-.6 2.7-2.6 1.9-1.9-.4-2.9-.3a3 3 0 0 1-2.8-1.1c-.7-1 .1-2.4.4-4.4s-2.1-4.1-1.5-4.9 1.4.7 2.5 2.1 1.4 2.3 4.3 2.9 5.1-1.9 4.8-3.2-4.4-5.5-6.6-7.3-2.3-3.5-3.5-5.3-2.7-1.7-5.7-2.4-4.8-.4-9.3.6-8.5 2.1-11.5 3.1-6.9 3.9-11.7 3.6-9.7.2-11.6 2.5-4.9 4.8-4.7 6.8 5.4 1.6 6.9 1.3-.2 3.7-1 5.5-1.2 5 2 4.5 2.9-2.1 5.9-3.9 4-.4 6.2-2.8.5-4 4.5-5.8 4.8-.5 7.3-2 5.9-4.3 8.1-2.8.5 3.3-3 4.5-7.5 2.4-7.8 5.3-.2 4.1 2.2 4.5 4.8-.4 5.6.8 2.3 3.9-.4 3.2-5.4-2.9-7.2-2-2.7-.1-3 1.7 1.2 3.3-.9 2.7-1.6-2.7-3.1-1.2a61.7 61.7 0 0 1-5.7 4.6c-1.4 1-1.1 1.9-4 .5s-2.7-2.7-5.5-1.9-1.9-1.5-4.4-2.5-3.7.7-4.7-1-1.2-3.4.7-3.5 2.1 1.3 3.6-.8 2.9-4.6 1.2-5-5.9 1-6.8 1.2-2.8 4.4-3.3 5.5-2 .9-6.4 1.2-2.9.2-6 1.6-4.6 2.2-7.5 2.2-3.7-2.4-5.5-1.5-.6 2.1-2.8 1.4-4.1-3.1-4.9-1.3 1.4 2.1 1.2 5-1.9 8-5 8.2-6.8-2.7-9.2-3.8-3.9-1-4.7.7-2.6 3.2-4.1 4.6-4.6 4.1-4.9 6.3 2.3 2.7 2.3 4.4-1.6 2.9.2 3.2 1.9-1.8 4.2-.4 5.3 2.1 7.3-.1 1.8-3.8 5.4-4.4 3.5 1 6.5-.8 1.9-4.3 5-3.3 1.7 1.7 5.3 2.1 4.7-.6 6.2.6-.2 2.4 1.3 6.4 2.7 6.6 2.8 8.5.4 4-1.4 5.5 1.5 2.3 2.6.3 1.9-3.7 2.4-3.2 2 3.2 2.8 1.8-1.3-3.3-2.1-5.9a58.5 58.5 0 0 1-1.7-9c-.1-1.7-1.1-3.7 1.2-3s3.2 4.8 4.6 9.9 1.2 6.5.9 9.5.1 5.7-.1 8.4.6 5.4 1.5 4.9.4-2.6 1.8-3.5 2.5 0 3.5-1.1-.8-2.1-1.3-3.8-.1-3.4 1.5-2.7 2.3.3 3-.2 2 .7 3.7 1.5a9.4 9.4 0 0 0 4.4.7c1.4 0 .6-1.3 2.4-3.2s3.1-5.2 6-5.5 2.3-1.7 4.6-2.2 3.6.2 4.5 1.9-.5 1-1.2 2.2-1.6 2.6-.6 3.1 1.8-.1 3.7.1 3.6 0 2.9-1.2-2.3-2.3-.9-2.7 3.6.2 6.4.9 4.7 1.1 2.8 1.7-2.8-1-4.1.4-2.9 1.6-1.7 3.6 1.3 1.5 3.2 5.5 2.2 6.6-.6 7-5.6.9-7.1-2.1-1.8-2.8-5.4-5.1-5.9-.2-9.4-.5-3.8-1-6.5-.9-3.7-1.6-4.7.9-1.6 4 0 7.4 2.5 5 5.3 4.9 1.5 1.3 5 2.6 5.4 2.2 5 4a10.5 10.5 0 0 1-4.3 5.5c-2.4 1.8-4.1 3.7-5.4 4.1s-2.5-1.7-5.3-2.4-6-.3-8.5-2.2-4.6-4.5-6.7-6.3-2.8-3.9-5.8-4.7-3.6.4-5.8 2.4-4.2 2.1-5.6-2.4-3.9-7.4-5.5-8.2-4.4-3.9-4-5.2 1.1-.8 2.8-4.3 1.8-5.2.3-6-5.9-2.3-7.9-3.1-3.5-2.5-8.1-2.9-7-.3-8.7-1.2-3.1-3.1-4.5-3-4.8 2-6.5 3-4.5.8-6 2.1-.9 4.8-4.6 5.3-5.7.2-7.9 1.6-1.5 2.8-5.6 5.1-7 2.6-7.9 4.9-1.7 6-3 8.7-3.5 4.4-5.1 6-3.2 3.2-3 6.1a67.4 67.4 0 0 0 1 8.6 27.5 27.5 0 0 1 .2 7.9c-.1 2.4 1.3 3.3 2.1 5.6s-2.8 2.3 3.5 6.6 2.9 3.9 8 4.9 5.2.8 10.2 2.5 6.1 4.1 6.5 6.2-.9 2 2.6 4.8 3.5 4.6 2.8 6.7-3.9 5.1-3.9 7.3-1.2 3.8.7 8.7 1.5 5.9 1.9 9.4-.6 5.8-1.1 8.7-3.6 5.3-4.6 7.8-2.7 3.6-2.7 5.8a57.7 57.7 0 0 0 1 7.4c.4 2.3 1.3 5.2 1.5 8.7s-2.2 5.1-1.2 9.2 4.1 9 4.3 12.6 2.9 5.6 6.2 7 8.7 4.3 13.4 2.3 7.7-8.4 12.1-9 7.4-1.3 8.2-3.5.5-5 2.7-6.4 8.3.1 12.3-2.1 5.2-8.5 5.4-12 1.3-8.9 2.4-10.2 3.3-6 7.1-7.3 13.7-4.5 20.1-6.5 11.5-6.6 13.7-8.7a22.5 22.5 0 0 0 4.9-7.2c.6-1.6-1.5-.3-7.8-1.6s-11.5-2-11.9-5.3a65.3 65.3 0 0 0-1.7-9c-1-3.8-2.7-6.6-2.1-10.2s-2.3-4.7-1.2-7.5 3.6-6.3 2.3-9.8-1-4.2-1.2-6.9 0-1.7-.3-6.1-1.4-9.1.3-8.7 1.4 4.7 2 5.3 1.3 0 1.9-1 1-.2 1.1 1.4-.8.4-.3 4.4a81.1 81.1 0 0 0 2.2 10.6c.9 3.6-1.9 7.3-.7 11.4a88.7 88.7 0 0 1 2.3 11c.2 1.7-2.9 7-1.2 9.8s2.9 3.6 7.9 3.4 10.8-.9 14.9-1.4 5 1.7 8.7-.1a79.8 79.8 0 0 0 9.5-5c4.9-2.9 8.1-2.5 6.3-7.1s-3.7-3.9-4-6.6-1.2-4-4.9-2.6-3.6 4-5.7.8.5-4.9-1.2-7.6-2.8-3.3-2.9-5.5-1.5-4.6-.7-6.4 4.6-.9 5.3.5-.1 4 1.3 6.9 4.8 6.2 6.8 6.7 2-1 3.7.8-.2 2.7 2.9 4.7 2.9 1 7.4 3.6 6.3 2.5 8.5 4.1 4.1 1.3 5.1 5.3a41.9 41.9 0 0 1 1.2 6.6c.4 2.1-.1 2.9 2.1 3.8s2.3-.6 2.4 4.4a80.1 80.1 0 0 1-1.1 17.2c-1.1 5.8-1.1 12.3.9 14s3.6-2.1 5.7-4 2.7-2.3 4.4-6.9 2.3-5.7 7.3-7.5 7.8-4.6 10.9-6.6.9-3.4 5.4-2.8 4.9-3.5 6.1 0a26.9 26.9 0 0 1 2.1 8.9c.3 4.1-3.2 5-2.8 7s2.2 1.2 4.7.9 1.9 4.1.5 6.3a22.6 22.6 0 0 0-3.7 7.5c-1.5 4.4-2.3 8.3-1.7 11.9s-2.3 4.9-.9 8.3 1.3 5.5 2.4 4-.6-1.9 1.1-5.2 1.8-5.3 1.4-7.2a19.6 19.6 0 0 1-.5-8.3c.6-3.6 1.4-6 3.3-6.8s2.3.5 3.4 3.9-.9 5.3.2 6.5 1.2.6 4.5-2.3 5-3.2 6.3-6.8 1.8-4.3.8-8.7-2.6-4.9 0-8.2 2.5-4.3 6.1-4.2 3.3.7 8-1.5 4.6-5.6 6.9-9.4a35.5 35.5 0 0 0 4.2-11.8c.8-3.8-.9-8.2-.4-11.5s2.8-4.5 2-6.4-1 .9-2.3-2-2-2.2.4-5.5 4.1-3.4 3.7-1.7.2 2 1.1 3.1.5 3.9.7 6-1.3 7.2.6 6.9 2.9-1.9 3-4-.3-2.8-.5-6.3-2-3.7-.3-8.3c.8-2 1.4-4 1.9-5.8a169.9 169.9 0 0 0-43.4-102.3zm-22.9 248.5l-2.8.8c-5 1.1-8.5 2.3-10.7 4.8s-1.3 2.9-5.6 6l-4.7 3.4a168.6 168.6 0 0 0 23.7-15.1zM70.8 230.7a13.3 13.3 0 0 0 1.4-7.6c-.5-4.7.8-6.3 2.9-12.1s3.1-8.8 2.8-11.9-3.6-11.9-4.1-18.3c-.4-4.5-.7-5.8-.3-8.5a168.5 168.5 0 0 0-2.7 58.4zm79-165.5a7.9 7.9 0 0 0 3.8-2.3l-3.8 2.3zm112.3-23.7a168.8 168.8 0 0 0-74.6 6.4c-3.4 1.1-6 1.6-6 4s1.3 2 7.1.3 9.8-4.3 19.4-4c5.2.8 2.8-1.2 8.7-.7s7 1.5 9.8.8 1.2-2.6 6.3-2.7 4.9.1 9.1-.9 9.6-1.8 12.9-1.6 4.5-1.2 7.4-1.7zm110.4 271.9l.8-1a1.5 1.5 0 0 0 0-.7c-.3-1.8-.9-2.4-3.8-1.2s-2.5 1.1-2.6 2.9.4 2.8 2.2 1.7 2.5-1.1 3.4-1.8zM199.7 125.1c-.7.5-1.8.5-1.2 1.6s.7 1.3 1.7 0 1.3-2.5-.5-1.7zm-2.3 6.3c-.9 2.2-.5 3.2-2.2 3.2s-3.1-.8-2.1-1.5 1-1.6 2-2.8a1.3 1.3 0 0 1 2.3 1.1zm.9 9.1a6.8 6.8 0 0 0 1.1 2.6c1.1 1.9.3 3.2 1.7 3.4s1.5-.3 2-1.4 1-1.3.7-2.2-1.7-.7-2.7-1.9-3.4-2.6-2.7-.4zm89.6-90.2c-1.8.2-1.6-1.6-2.8.5s-2.6 1.3-2.6 2.8 1.4.3 3 .4 1 1.8 2.9 2.1-.1-2.1 1.3-3 1.9 1.1 4 .4.8-1.6-.6-2.3-1.8-1.1-5.2-.9zm54.4 232c-.6.7-1.3 1.8-.9 2.3s.7.4 1.4-.8.4-2.9-.6-1.5zm3.2-8.7c-.5 1-1.2 1.2-1 2.4s.6 2 1.4.5 1.1-1.3 1-2.6-.6-2.1-1.4-.3zm-26.7 2.6c-.4 1 .1.7-1.6 2.7s-2.6 1.9-2.2 4.3 2.3 3.5 3.4 1.8.7-2.8 1.7-5.3 1.2-2.6.9-3.4-1.1-1.7-2.1-.1zm64.8 13.1c-.7 1.5-2.1 1.9-3 3.6s.2 3.9 1.5 2.4 1.8-1.5 2.7-3.5-.3-4.5-1.2-2.5zm1.5-9.1c-.9 1.2-1.6 2.2-.7 3.8s1.2 2.7 2.3.6-.3-5.9-1.5-4.5zm4.1-14a55.7 55.7 0 0 1-2.5 5.8c-.9 1.8-1.7 2.5-.4 3.9s2.2 3.5 2.8 2.2 0-1.2-.3-3.3.3-2.6 1.4-5-.1-5.8-1-3.6zm-40 54.5c1.4.8.4.8 3.5 1.6s5.2 1.6 5.4 2.5-.3.7-3.3 0a49.9 49.9 0 0 1-6.4-1.8c-2.7-.9-4.2-1.8-3.4-2.5s1.9-1.1 4.1.2zm19.4-21.7c-2.2 2.2-1.4 3.5-4.6 3.7s-4.6.9-5.3 1.8a5.5 5.5 0 0 0-1.5 4.9c.6 2.3-1.2 4.2.3 5s2.4.8 4.1-1.2 2.2-2 4.6-4.7 2.5-1.5 4-5.4 1.3-4 3.1-6.5 1.6-3-.2-2.6-2.5 2.1-4.5 5zm-25.7-2c1.3 2.3 1.6 4.5 1.4 7.9s-1.1 7.1-1.1 10.2.6 3.4 2.4 1.6.9-3.1 2.2-6 .8-3.1.7-5.7-1.1-3.7-1.4-5.1-.5-1.3-1.9-3.9-3.4-1.8-2.4 1.1zm-121.1 13.7c-2 2-2.6 1.8-5.4 5.4s-5.1 6.5-7.3 7.5-4.1 1.7-5.5.1-2-1.6-1.5-4.3.5-3 2.7-5.4 1.9-5.1 3.4-6.9 2.6-.9 6.4-1.5 4.4-1.4 5.9-2.4 2.5-.6 3.7-2 2.9-.9 2.6.6a14 14 0 0 1-4.9 8.9zm-2.6-254.8c2 .8 3.4-.2 4 .9s-.2 2.7-1.8 3.1-1.9.3-4.7.1-4.4 1-5.6-.8.5-4.5 2-4.7 3.6.4 6 1.4zm-20.6 27.4c-.6.6-1.5.4-2.7.1a2.1 2.1 0 0 0-2.4 1.5c-.3.9-2.1 1.7-2.7 1.9s-2.3 1.1-1.6 1.7 2.3.7 3.7.2a17.7 17.7 0 0 1 3.2-1c1.4-.3 1-1.4 2.4-1.9s1.7.1 2.2-1-.9-2.8-2.1-1.5zm12.3-.4c-1.7.8-1.8 1.1-2.1 3.1s.7 1.6-.2 3.5-2.2 2.1-2.1 3.1.1 2.2-.5 2.8a6.9 6.9 0 0 1-3.3 1.7c-1.1.1-4.2-.9-6.3-1.3s-3.5 0-3.5-.8 2.5-1.5 3.8-1.8 1.6-2.1 2.7-3.2 2-.1 3.3-1.3 1-2.6 1.5-3.8a9 9 0 0 1 1.9-3c.6-.5.4-1.1 1.5-2.1s3.2-2.5 4.9-2.1.6 1.1.5 1.8.1.9.1 1.6-1.1 1.5-2.3 1.7zm101-6.6c.7.3 1.3.4 1.3 1.2s-1.2 1.2-.7 3 1.8 2.5 2.3 3.6-.9.7-2.8-.4-.7-1.3-1.9-2.7-1-2.1-.5-3.2 1.1-1.9 2.2-1.4zm3.1-.4c1.6-1.1 1.6-1.7 3.7-2.2a30.4 30.4 0 0 1 5.2-.4c1.7-.1.7-1.5-.5-1.7s-2.4.1-4-.5-3.1-.5-3.9.2-1.1 2-1.6 2.9a1.2 1.2 0 0 0 1.2 1.8z" fill="#fff" fill-rule="evenodd"/></svg>